<svg width="14" height="14" viewBox="0 0 14 14" fill="none" xmlns="http://www.w3.org/2000/svg">
	<path fill-rule="evenodd" clip-rule="evenodd" d="M13.6666 6.99992C13.6666 10.6818 10.6819 13.6666 6.99998 13.6666C3.31808 13.6666 0.333313 10.6818 0.333313 6.99992C0.333313 3.31802 3.31808 0.333252 6.99998 0.333252C10.6819 0.333252 13.6666 3.31802 13.6666 6.99992ZM6.99998 6.33325C7.36817 6.33325 7.66665 6.63173 7.66665 6.99992V10.3338C7.66665 10.702 7.36817 11.0005 6.99998 11.0005C6.63179 11.0005 6.33331 10.702 6.33331 10.3338V6.99992C6.33331 6.63173 6.63179 6.33325 6.99998 6.33325ZM6.99998 4.99992C7.36817 4.99992 7.66665 4.70144 7.66665 4.33325C7.66665 3.96506 7.36817 3.66659 6.99998 3.66659C6.63179 3.66659 6.33331 3.96506 6.33331 4.33325C6.33331 4.70144 6.63179 4.99992 6.99998 4.99992Z" fill="#9A9FA5"/>
</svg>